<?xml version="1.0" standalone="no"?><!DOCTYPE svg PUBLIC "-//W3C//DTD SVG 1.1//EN" "http://www.w3.org/Graphics/SVG/1.1/DTD/svg11.dtd"><svg t="1758812156907" class="icon" viewBox="0 0 1024 1024" version="1.1" xmlns="http://www.w3.org/2000/svg" p-id="6025" id="mx_n_1758812156908" data-spm-anchor-id="a313x.search_index.0.i9.510d3a81x4Ph5a" xmlns:xlink="http://www.w3.org/1999/xlink" width="200" height="200"><path d="M512 0C229.376 0 0 229.376 0 512s229.376 512 512 512 512-229.376 512-512S794.624 0 512 0z m135.168 259.072c0-9.216 8.192-17.408 17.408-17.408s17.408 8.192 17.408 17.408v111.616c0 9.216-8.192 17.408-17.408 17.408s-17.408-8.192-17.408-17.408V259.072z m-306.176 0c0-9.216 8.192-17.408 17.408-17.408s17.408 8.192 17.408 17.408v111.616c0 9.216-8.192 17.408-17.408 17.408s-17.408-8.192-17.408-17.408V259.072z m464.896 480.256c0 23.552-19.456 43.008-43.008 43.008H262.144c-23.552 0-43.008-19.456-43.008-43.008V456.704h586.752v282.624z m0-295.936H218.112V358.4c0-23.552 19.456-43.008 43.008-43.008h72.704v54.272c0 13.312 11.264 24.576 24.576 24.576 13.312 0 24.576-11.264 24.576-24.576v-54.272h258.048v54.272c0 13.312 11.264 24.576 24.576 24.576 13.312 0 24.576-11.264 24.576-24.576v-54.272h72.704c23.552 0 43.008 19.456 43.008 43.008v84.992z" p-id="6026"></path></svg>